<?xml version="1.0" encoding="UTF-8"?>
<svg width="265px" height="75px" viewBox="0 0 265 75" version="1.1" xmlns="http://www.w3.org/2000/svg" xmlns:xlink="http://www.w3.org/1999/xlink">
    <!-- Generator: Sketch 54.1 (76490) - https://sketchapp.com -->
    <title>YOOBIC_Logo_horizontal</title>
    <desc>Created with Sketch.</desc>
    <defs>
        <path d="M24.2713175,75 L24.2539745,75 C23.9568343,74.999887 23.6586147,74.9939651 23.3594061,74.9821678 L18.2866142,74.7897014 L31.7821559,45.1504043 C31.877866,45.0541758 31.9735819,44.861707 32.0692978,44.6692441 L32.1650079,44.5730156 L31.9735819,44.5730156 C24.3165361,43.2257754 17.6166261,37.8368086 13.8838162,29.6571328 L0.196850197,0.0178124999 L5.46106636,0.0178124999 C5.75039679,0.00629251315 6.03886984,0.000375649473 6.32639569,-9.12758163e-09 L6.38488256,-7.13092326e-11 C15.6804147,0.0121500527 23.9786849,5.81670956 28.240772,15.3186328 L36.8549478,33.9875508 L45.4691236,15.3186328 C49.823862,5.81670956 58.125115,0.0121500527 67.5075257,-1.1355877e-10 L67.5665661,-7.13092326e-11 C67.856782,0.000375649473 68.1480325,0.00629251315 68.4402261,0.0178124999 L73.5130413,0.0178124999 L59.8260853,30.2345215 L46.3305377,59.6813613 C41.9725827,69.1902874 33.6622968,74.9964277 24.2713175,75 L24.2713175,75 Z" id="path-1"></path>
        <linearGradient x1="13.2869264%" y1="-35.023%" x2="72.1671668%" y2="66.961%" id="linearGradient-3">
            <stop stop-color="#45E2FF" offset="0%"></stop>
            <stop stop-color="#7B6BFF" offset="100%"></stop>
        </linearGradient>
    </defs>
    <g id="Page-1" stroke="none" stroke-width="1" fill="none" fill-rule="evenodd">
        <g id="Artboard" transform="translate(-543.000000, -638.000000)">
            <g id="YOOBIC_Logo_horizontal" transform="translate(543.000000, 638.000000)">
                <g id="Yoobic_Logo_vertical">
                    <g id="Group" transform="translate(89.000000, 7.000000)" fill="#20274F" fill-rule="nonzero">
                        <path d="M10.92,60 L10.92,46 L17.16,46 C20.44,46 22.36,47.76 22.36,50.46 C22.36,52.76 20.98,54.14 19.02,54.7 L22.8,60 L19.9,60 L16.42,55.12 L13.38,55.12 L13.38,60 L10.92,60 Z M13.38,52.94 L16.98,52.94 C18.74,52.94 19.86,52.02 19.86,50.56 C19.86,49.06 18.78,48.24 16.96,48.24 L13.38,48.24 L13.38,52.94 Z M30.74,60.24 C27.68,60.24 25.32,58.02 25.32,54.72 C25.32,51.7 27.46,49.22 30.48,49.22 C33.84,49.22 35.54,51.86 35.54,54.9 C35.54,55.06 35.52,55.46 35.5,55.58 L27.74,55.58 C28,57.3 29.22,58.26 30.78,58.26 C31.96,58.26 32.8,57.82 33.64,57 L35.06,58.26 C34.06,59.46 32.68,60.24 30.74,60.24 Z M27.72,53.98 L33.14,53.98 C32.98,52.42 32.06,51.2 30.46,51.2 C28.98,51.2 27.94,52.34 27.72,53.98 Z M42.52,60.18 C40.74,60.18 39.48,59.4 39.48,57.08 L39.48,51.52 L38.14,51.52 L38.14,49.44 L39.48,49.44 L39.48,46.54 L41.9,46.54 L41.9,49.44 L44.74,49.44 L44.74,51.52 L41.9,51.52 L41.9,56.7 C41.9,57.64 42.38,58.02 43.2,58.02 C43.74,58.02 44.22,57.9 44.7,57.66 L44.7,59.64 C44.1,59.98 43.42,60.18 42.52,60.18 Z M57.04,60 L54.64,60 L54.64,58.7 C53.92,59.56 52.82,60.22 51.22,60.22 C49.22,60.22 47.46,59.08 47.46,56.92 C47.46,54.58 49.28,53.46 51.74,53.46 C53.02,53.46 53.84,53.64 54.66,53.9 L54.66,53.7 C54.66,52.24 53.74,51.44 52.06,51.44 C50.88,51.44 50,51.7 49.04,52.1 L48.38,50.16 C49.54,49.64 50.68,49.28 52.4,49.28 C55.52,49.28 57.04,50.92 57.04,53.74 L57.04,60 Z M54.7,56.18 L54.7,55.58 C54.08,55.34 53.22,55.16 52.28,55.16 C50.76,55.16 49.86,55.78 49.86,56.84 C49.86,57.84 50.76,58.4 51.9,58.4 C53.5,58.4 54.7,57.5 54.7,56.18 Z M60.96,47.82 L60.96,45.52 L63.56,45.52 L63.56,47.82 L60.96,47.82 Z M61.06,60 L61.06,49.44 L63.48,49.44 L63.48,60 L61.06,60 Z M67.78,60 L67.78,45.4 L70.2,45.4 L70.2,60 L67.78,60 Z M86.54,60.2 C84.4,60.2 82.38,59.46 80.7,57.96 L82.18,56.2 C83.52,57.36 84.86,58.02 86.6,58.02 C88.12,58.02 89.08,57.32 89.08,56.22 C89.08,55.22 88.52,54.68 85.92,54.06 C82.94,53.36 81.26,52.48 81.26,49.86 C81.26,47.46 83.26,45.8 86.04,45.8 C88.08,45.8 89.7,46.42 91.12,47.56 L89.8,49.42 C88.54,48.48 87.28,47.98 86,47.98 C84.56,47.98 83.72,48.72 83.72,49.68 C83.72,50.76 84.36,51.24 87.04,51.88 C90,52.6 91.54,53.66 91.54,56.02 C91.54,58.64 89.48,60.2 86.54,60.2 Z M95.16,60 L95.16,49.44 L97.58,49.44 L97.58,51.04 C98.26,50.1 99.18,49.22 100.8,49.22 C102.32,49.22 103.38,49.96 103.94,51.08 C104.8,49.96 105.92,49.22 107.52,49.22 C109.82,49.22 111.22,50.68 111.22,53.26 L111.22,60 L108.8,60 L108.8,54 C108.8,52.32 108.02,51.42 106.66,51.42 C105.34,51.42 104.4,52.34 104.4,54.04 L104.4,60 L101.98,60 L101.98,53.98 C101.98,52.34 101.18,51.42 99.84,51.42 C98.5,51.42 97.58,52.42 97.58,54.06 L97.58,60 L95.16,60 Z M124.02,60 L121.62,60 L121.62,58.7 C120.9,59.56 119.8,60.22 118.2,60.22 C116.2,60.22 114.44,59.08 114.44,56.92 C114.44,54.58 116.26,53.46 118.72,53.46 C120,53.46 120.82,53.64 121.64,53.9 L121.64,53.7 C121.64,52.24 120.72,51.44 119.04,51.44 C117.86,51.44 116.98,51.7 116.02,52.1 L115.36,50.16 C116.52,49.64 117.66,49.28 119.38,49.28 C122.5,49.28 124.02,50.92 124.02,53.74 L124.02,60 Z M121.68,56.18 L121.68,55.58 C121.06,55.34 120.2,55.16 119.26,55.16 C117.74,55.16 116.84,55.78 116.84,56.84 C116.84,57.84 117.74,58.4 118.88,58.4 C120.48,58.4 121.68,57.5 121.68,56.18 Z M127.9,60 L127.9,49.44 L130.32,49.44 L130.32,51.82 C130.98,50.24 132.2,49.16 134.06,49.24 L134.06,51.8 L133.92,51.8 C131.8,51.8 130.32,53.18 130.32,55.98 L130.32,60 L127.9,60 Z M140.7,60.18 C138.92,60.18 137.66,59.4 137.66,57.08 L137.66,51.52 L136.32,51.52 L136.32,49.44 L137.66,49.44 L137.66,46.54 L140.08,46.54 L140.08,49.44 L142.92,49.44 L142.92,51.52 L140.08,51.52 L140.08,56.7 C140.08,57.64 140.56,58.02 141.38,58.02 C141.92,58.02 142.4,57.9 142.88,57.66 L142.88,59.64 C142.28,59.98 141.6,60.18 140.7,60.18 Z M150.9,60.24 C147.84,60.24 145.48,58.02 145.48,54.72 C145.48,51.7 147.62,49.22 150.64,49.22 C154,49.22 155.7,51.86 155.7,54.9 C155.7,55.06 155.68,55.46 155.66,55.58 L147.9,55.58 C148.16,57.3 149.38,58.26 150.94,58.26 C152.12,58.26 152.96,57.82 153.8,57 L155.22,58.26 C154.22,59.46 152.84,60.24 150.9,60.24 Z M147.88,53.98 L153.3,53.98 C153.14,52.42 152.22,51.2 150.62,51.2 C149.14,51.2 148.1,52.34 147.88,53.98 Z M159.14,60 L159.14,49.44 L161.56,49.44 L161.56,51.82 C162.22,50.24 163.44,49.16 165.3,49.24 L165.3,51.8 L165.16,51.8 C163.04,51.8 161.56,53.18 161.56,55.98 L161.56,60 L159.14,60 Z" id="RetailSmarter"></path>
                        <g id="Yoobic_Tagline">
                            <polygon id="Path" points="11.3516409 17.9714286 0.431541285 0.644857143 7.73616695 0.644857143 14.5145227 12.1095714 21.4191833 0.644857143 28.5185637 0.644857143 17.5984641 17.8234285 17.5984641 29.2088572 11.3516409 29.2088572"></polygon>
                            <path d="M31.3604209,14.9268571 C31.3604209,6.808 37.7388117,0.158571428 46.5064675,0.158571428 C55.2741234,0.158571428 61.5735736,6.72342857 61.5735736,14.9268571 C61.5735736,23.0457142 55.1951829,29.6951428 46.427527,29.6951428 C37.6598711,29.6951428 31.3604209,23.125 31.3604209,14.9268571 Z M55.0425646,14.9268571 C55.0425646,10.0322857 51.4691922,5.94114286 46.4327897,5.94114286 C41.3963872,5.94114286 37.907218,9.93714285 37.907218,14.9268571 C37.907218,19.8214285 41.4805903,23.9125714 46.5169929,23.9125714 C51.5533955,23.9125714 55.0320392,19.906 55.0320392,14.9268571 L55.0425646,14.9268571 Z" id="Shape"></path>
                            <path d="M67.0888817,14.9268571 C67.0888817,6.808 73.4620097,0.158571428 82.2296655,0.158571428 C90.9973214,0.158571428 97.2915086,6.72342857 97.2915086,14.9268571 C97.2915086,23.0457142 90.9183809,29.6951428 82.150725,29.6951428 C73.3830692,29.6951428 67.0888817,23.125 67.0888817,14.9268571 Z M90.7710252,14.9268571 C90.7710252,10.0322857 87.2029156,5.94114286 82.1665131,5.94114286 C77.1301106,5.94114286 73.6409415,9.93714285 73.6409415,14.9268571 C73.6409415,19.8214285 77.2143138,23.9125714 82.2454536,23.9125714 C87.2765934,23.9125714 90.7552371,19.906 90.7552371,14.9268571 L90.7710252,14.9268571 Z" id="Shape"></path>
                            <path d="M104.075128,0.644857143 L117.268713,0.644857143 C120.515798,0.644857143 123.057681,1.54342857 124.699643,3.17671429 C126.007528,4.47643162 126.713714,6.26686867 126.646842,8.1135714 C126.646842,11.3378572 124.941728,13.1297143 122.910326,14.2714285 C126.199512,15.54 128.230914,17.4428572 128.230914,21.3754285 C128.230914,26.5977142 124.020755,29.2088572 117.595,29.2088572 L104.075128,29.2088572 L104.075128,0.644857143 Z M115.931987,12.1941428 C118.689641,12.1941428 120.436857,11.2955714 120.436857,9.0914286 C120.436857,7.215 118.973827,6.15257143 116.337215,6.15257143 L110.16407,6.15257143 L110.16407,12.1941428 L115.931987,12.1941428 Z M117.595,23.7011428 C120.352654,23.7011428 122.020929,22.718 122.020929,20.5297143 C122.020929,18.6162857 120.600001,17.4322857 117.389755,17.4322857 L110.16407,17.4322857 L110.16407,23.7011428 L117.595,23.7011428 Z" id="Shape"></path>
                            <polygon id="Path" points="135.698684 0.644857143 141.950769 0.644857143 141.950769 29.1877143 135.698684 29.1877143"></polygon>
                            <path d="M149.018573,14.9268571 C149.018573,6.808 155.107515,0.158571428 163.83307,0.158571428 C169.190497,0.158571428 172.195498,2.19885714 174.837373,4.81 L171.100856,9.13371427 C168.906312,7.13571428 167.043316,5.96228572 163.790969,5.96228572 C159.001912,5.96228572 155.554845,9.95828572 155.554845,14.948 C155.554845,19.8425714 158.922972,23.9337142 163.790969,23.9337142 C167.043316,23.9337142 169.053667,22.6281428 171.264,20.5878571 L175.247863,24.8428571 C172.321803,27.9825714 169.074718,29.6951428 163.596249,29.6951428 C155.249608,29.6951428 149.018573,23.2095714 149.018573,14.9268571 Z" id="Path"></path>
                        </g>
                    </g>
                    <g id="Y">
                        <mask id="mask-2" fill="white">
                            <use xlink:href="#path-1"></use>
                        </mask>
                        <g id="Clip-2"></g>
                        <polygon id="Fill-1" fill="url(#linearGradient-3)" mask="url(#mask-2)" points="-1 75 74 75 74 0 -1 0"></polygon>
                    </g>
                </g>
            </g>
        </g>
    </g>
</svg>